<?xml version="1.0" encoding="UTF-8" standalone="no"?>
<svg xmlns:dc="http://purl.org/dc/elements/1.1/" xmlns:cc="http://creativecommons.org/ns#" xmlns:rdf="http://www.w3.org/1999/02/22-rdf-syntax-ns#" xmlns:svg="http://www.w3.org/2000/svg" xmlns="http://www.w3.org/2000/svg" xmlns:sodipodi="http://sodipodi.sourceforge.net/DTD/sodipodi-0.dtd" xmlns:inkscape="http://www.inkscape.org/namespaces/inkscape" height="1000" version="1.0" viewBox="0 0 1130 1000" width="1130" id="svg2684" sodipodi:version="0.32" inkscape:version="0.46" sodipodi:docname="Fusidic_acid_structure.svg" inkscape:output_extension="org.inkscape.output.svg.inkscape">
  <metadata id="metadata2847">
    <rdf:RDF>
      <cc:Work rdf:about="">
        <dc:format>image/svg+xml</dc:format>
        <dc:type rdf:resource="http://purl.org/dc/dcmitype/StillImage"/>
      </cc:Work>
    </rdf:RDF>
  </metadata>
  <defs id="defs2845">
    <inkscape:perspective sodipodi:type="inkscape:persp3d" inkscape:vp_x="0 : 500 : 1" inkscape:vp_y="0 : 1000 : 0" inkscape:vp_z="1130 : 500 : 1" inkscape:persp3d-origin="565 : 333.33333 : 1" id="perspective2849"/>
  </defs>
  <sodipodi:namedview inkscape:window-height="676" inkscape:window-width="640" inkscape:pageshadow="2" inkscape:pageopacity="0.0" guidetolerance="10.0" gridtolerance="10.0" objecttolerance="10.0" borderopacity="1.0" bordercolor="#666666" pagecolor="#ffffff" id="base" showgrid="false" inkscape:zoom="0.462" inkscape:cx="565" inkscape:cy="500" inkscape:window-x="66" inkscape:window-y="66" inkscape:current-layer="svg2684"/>
  <g style="font-size: 60px; stroke: rgb(0, 0, 0); stroke-width: 4; stroke-linecap: round; font-family: Helvetica;" id="g2688">
    <line id="line2690" y2="532.09998" y1="549.40002" x2="453.70001" x1="443.70001"/>
    <line id="line2692" y2="523.5" y1="540.79999" x2="438.79999" x1="428.79999"/>
    <line id="line2694" y2="514.90002" y1="532.20001" x2="423.89999" x1="413.89999"/>
    <line id="line2696" y2="506.29999" y1="523.59998" x2="409" x1="399"/>
    <line id="line2698" y2="602.09998" y1="655" x2="1098.8" x1="1007.1"/>
    <line id="line2700" y2="655" y1="618.59998" x2="1007.1" x1="944"/>
    <line id="line2702" y2="549.40002" y1="496.39999" x2="463.70001" x1="555.20001"/>
    <line id="line2704" y2="813.79999" y1="866.70001" x2="372" x1="280.29999"/>
    <line id="line2706" y2="655.20001" y1="708" x2="280.29999" x1="372"/>
    <line id="line2708" y2="178.5" y1="231.39999" x2="617.70001" x1="709.40002"/>
    <line id="line2710" y2="533" y1="533" x2="656.90002" x1="636.90002"/>
    <line id="line2712" y2="516.70001" y1="516.70001" x2="656.90002" x1="636.90002"/>
    <line id="line2714" y2="500.5" y1="500.5" x2="656.90002" x1="636.90002"/>
    <line id="line2716" y2="484.20001" y1="484.20001" x2="656.90002" x1="636.90002"/>
    <line id="line2718" y2="468" y1="468" x2="656.90002" x1="636.90002"/>
    <line id="line2720" y2="549.20001" y1="655" x2="646.90002" x1="646.90002"/>
    <line id="line2722" y2="72.699997" y1="178.5" x2="617.70001" x1="617.70001"/>
    <line id="line2724" y2="86" y1="165.3" x2="641.70001" x1="641.70001"/>
    <line id="line2726" y2="337.20001" y1="415.89999" x2="709.40002" x1="780.20001"/>
    <line id="line2728" y2="813.79999" y1="708" x2="188.7" x1="188.7"/>
    <line id="line2730" y2="655.20001" y1="708" x2="463.70001" x1="555.29999"/>
    <line id="line2732" y2="415.89999" y1="516.5" x2="780.20001" x1="747.5"/>
    <line id="line2734" y2="421" y1="496.5" x2="753.20001" x1="728.70001"/>
    <line id="line2736" y2="724" y1="655" x2="1015.1" x1="1015.1"/>
    <line id="line2738" y2="724" y1="655" x2="999.09998" x1="999.09998"/>
    <line id="line2740" y2="708" y1="813.79999" x2="555.29999" x1="555.29999"/>
    <line id="line2742" y2="708" y1="813.79999" x2="372" x1="372"/>
    <line id="line2744" y2="866.70001" y1="813.79999" x2="280.29999" x1="188.7"/>
    <line id="line2746" y2="496.39999" y1="549.20001" x2="555.20001" x1="646.90002"/>
    <line id="line2748" y2="19.799999" y1="72.699997" x2="526.09998" x1="617.70001"/>
    <line id="line2750" y2="813.79999" y1="866.70001" x2="555.29999" x1="463.70001"/>
    <polygon style="fill: rgb(0, 0, 0); stroke: rgb(0, 0, 0);" id="polygon2752" points="809.70001,602.09998 883.50001,610.09998 883.50001,590.09998 809.70001,598.09998 809.70001,602.09998"/>
    <line id="line2754" y2="655" y1="687.70001" x2="646.90002" x1="747.5"/>
    <line id="line2756" y2="602.09998" y1="516.5" x2="809.70001" x1="747.5"/>
    <line id="line2758" y2="692.90002" y1="692.90002" x2="565.29999" x1="545.29999"/>
    <line id="line2760" y2="677.79999" y1="677.79999" x2="565.29999" x1="545.29999"/>
    <line id="line2762" y2="662.59998" y1="662.70001" x2="565.29999" x1="545.29999"/>
    <line id="line2764" y2="647.5" y1="647.59998" x2="565.29999" x1="545.29999"/>
    <line id="line2766" y2="632.40002" y1="632.40002" x2="565.20001" x1="545.20001"/>
    <line id="line2768" y2="617.29999" y1="617.29999" x2="565.20001" x1="545.20001"/>
    <line id="line2770" y2="602.20001" y1="602.20001" x2="565.20001" x1="545.20001"/>
    <line id="line2772" y2="516.5" y1="549.20001" x2="747.5" x1="646.90002"/>
    <line id="line2774" y2="655" y1="708" x2="646.90002" x1="555.29999"/>
    <polygon style="fill: rgb(0, 0, 0); stroke: rgb(0, 0, 0);" id="polygon2776" points="648.9,655 656.9,760.8 636.9,760.8 644.9,655 648.9,655"/>
    <line id="line2778" y2="813.90002" y1="831.20001" x2="168.5" x1="178.5"/>
    <line id="line2780" y2="822.70001" y1="840" x2="153.3" x1="163.3"/>
    <line id="line2782" y2="831.40002" y1="848.79999" x2="138.2" x1="148.2"/>
    <line id="line2784" y2="840.20001" y1="857.5" x2="123" x1="133"/>
    <line id="line2786" y2="708" y1="655.20001" x2="188.7" x1="280.29999"/>
    <line id="line2788" y2="866.70001" y1="813.79999" x2="463.70001" x1="372"/>
    <line id="line2790" y2="831.40002" y1="831.40002" x2="362" x1="382"/>
    <line id="line2792" y2="848.90002" y1="848.90002" x2="362" x1="382"/>
    <line id="line2794" y2="866.5" y1="866.5" x2="362" x1="382"/>
    <line id="line2796" y2="884" y1="884" x2="362" x1="382"/>
    <polygon style="fill: rgb(0, 0, 0); stroke: rgb(0, 0, 0);" id="polygon2798" points="370,708 362,602.2 382,602.2 374,708 370,708"/>
    <line id="line2800" y2="687.70001" y1="602.09998" x2="747.5" x1="809.70001"/>
    <line id="line2802" y2="655.20001" y1="549.40002" x2="463.70001" x1="463.70001"/>
    <line id="line2804" y2="231.39999" y1="337.20001" x2="709.40002" x1="709.40002"/>
    <line id="line2806" y2="19.799999" y1="72.699997" x2="709.40002" x1="617.70001"/>
    <line id="line2808" y2="399.70001" y1="415.89999" x2="856" x1="780.20001"/>
    <line id="line2810" y2="708" y1="655.20001" x2="372" x1="463.70001"/>
    <line id="line2812" y2="881.79999" y1="881.79999" x2="270.29999" x1="290.29999"/>
    <line id="line2814" y2="896.90002" y1="896.90002" x2="270.29999" x1="290.29999"/>
    <line id="line2816" y2="912" y1="912" x2="270.29999" x1="290.29999"/>
    <line id="line2818" y2="927.09998" y1="927.09998" x2="270.29999" x1="290.29999"/>
    <line id="line2820" y2="942.20001" y1="942.20001" x2="270.29999" x1="290.29999"/>
    <line id="line2822" y2="957.29999" y1="957.29999" x2="270.29999" x1="290.29999"/>
    <line id="line2824" y2="972.5" y1="972.5" x2="270.29999" x1="290.29999"/>
    <polygon style="fill: rgb(0, 0, 0); stroke: rgb(0, 0, 0);" id="polygon2826" points="465.7,655.2 473.7,724 453.7,724 461.7,655.2 465.7,655.2"/>
  </g>
  <path style="font-size: 60px; fill: rgb(0, 0, 0); stroke-linecap: round; font-family: Helvetica;" d="M 896.47345,394.74139 L 902.15704,396.17694 C 900.9656,400.84492 898.82204,404.40449 895.72638,406.85565 C 892.63064,409.30682 888.84647,410.53241 884.37384,410.53241 C 879.74492,410.53241 875.98027,409.59003 873.0799,407.70526 C 870.1795,405.8205 867.97247,403.09101 866.4588,399.51678 C 864.94513,395.94258 864.18829,392.10469 864.18829,388.00311 C 864.18829,383.53048 865.04278,379.62912 866.75177,376.29901 C 868.46075,372.96897 870.89239,370.43968 874.04669,368.71112 C 877.20097,366.98265 880.67265,366.11839 884.46173,366.11835 C 888.75858,366.11839 892.37186,367.21214 895.30157,369.3996 C 898.23123,371.58714 900.27224,374.6633 901.42462,378.62811 L 895.82892,379.94647 C 894.83279,376.82151 893.38748,374.54612 891.49298,373.1203 C 889.59842,371.69456 887.21561,370.98167 884.34454,370.98163 C 881.04374,370.98167 878.28496,371.77268 876.06818,373.35468 C 873.85137,374.93674 872.29375,377.06076 871.39532,379.72675 C 870.49688,382.39279 870.04766,385.14181 870.04767,387.97382 C 870.04766,391.62618 870.57989,394.81465 871.64435,397.53925 C 872.70879,400.26386 874.36406,402.3 876.61017,403.64764 C 878.85624,404.99531 881.28788,405.66913 883.90509,405.66913 C 887.08866,405.66913 889.78397,404.75116 891.99103,402.91522 C 894.19803,401.07929 895.69217,398.35469 896.47345,394.74139 L 896.47345,394.74139 z M 907.45978,388.88202 C 907.45977,381.75314 909.37384,376.17209 913.20197,372.13885 C 917.03008,368.10569 921.97148,366.08909 928.02618,366.08905 C 931.991,366.08909 935.56522,367.03636 938.74884,368.93085 C 941.9324,370.82542 944.35915,373.46702 946.02911,376.85565 C 947.69899,380.24435 948.53395,384.08712 948.534,388.38397 C 948.53395,392.73946 947.65505,396.63594 945.89728,400.07343 C 944.13943,403.51093 941.64919,406.11347 938.42657,407.88104 C 935.20389,409.64862 931.72733,410.53241 927.99689,410.53241 C 923.9539,410.53241 920.34062,409.55585 917.15704,407.60272 C 913.97344,405.6496 911.56133,402.98359 909.92072,399.60468 C 908.28009,396.22578 907.45977,392.65157 907.45978,388.88202 L 907.45978,388.88202 z M 913.31915,388.96991 C 913.31914,394.14571 914.71074,398.22285 917.49396,401.20135 C 920.27714,404.17988 923.76835,405.66913 927.96759,405.66913 C 932.24491,405.66913 935.76541,404.16523 938.52911,401.15741 C 941.29275,398.14961 942.67458,393.88203 942.67462,388.35468 C 942.67458,384.85861 942.08376,381.80685 940.90216,379.1994 C 939.72048,376.59201 937.99197,374.57053 935.71661,373.13495 C 933.44119,371.69944 930.88749,370.98167 928.05548,370.98163 C 924.03202,370.98167 920.57011,372.3635 917.66974,375.12714 C 914.76934,377.89084 913.31914,382.50509 913.31915,388.96991 L 913.31915,388.96991 z M 954.1004,388.88202 C 954.1004,381.75314 956.01446,376.17209 959.84259,372.13885 C 963.6707,368.10569 968.6121,366.08909 974.66681,366.08905 C 978.63163,366.08909 982.20584,367.03636 985.38947,368.93085 C 988.57302,370.82542 990.99978,373.46702 992.66974,376.85565 C 994.33962,380.24435 995.17458,384.08712 995.17462,388.38397 C 995.17458,392.73946 994.29567,396.63594 992.5379,400.07343 C 990.78005,403.51093 988.28982,406.11347 985.0672,407.88104 C 981.84451,409.64862 978.36795,410.53241 974.63751,410.53241 C 970.59452,410.53241 966.98125,409.55585 963.79767,407.60272 C 960.61407,405.6496 958.20196,402.98359 956.56134,399.60468 C 954.92071,396.22578 954.1004,392.65157 954.1004,388.88202 L 954.1004,388.88202 z M 959.95978,388.96991 C 959.95977,394.14571 961.35137,398.22285 964.13458,401.20135 C 966.91777,404.17988 970.40898,405.66913 974.60822,405.66913 C 978.88553,405.66913 982.40604,404.16523 985.16974,401.15741 C 987.93337,398.14961 989.31521,393.88203 989.31525,388.35468 C 989.31521,384.85861 988.72439,381.80685 987.54279,379.1994 C 986.36111,376.59201 984.6326,374.57053 982.35724,373.13495 C 980.08182,371.69944 977.52811,370.98167 974.69611,370.98163 C 970.67265,370.98167 967.21074,372.3635 964.31036,375.12714 C 961.40996,377.89084 959.95977,382.50509 959.95978,388.96991 L 959.95978,388.96991 z M 1002.6453,409.79999 L 1002.6453,366.85077 L 1008.3289,366.85077 L 1008.3289,384.48749 L 1030.6531,384.48749 L 1030.6531,366.85077 L 1036.3367,366.85077 L 1036.3367,409.79999 L 1030.6531,409.79999 L 1030.6531,389.55585 L 1008.3289,389.55585 L 1008.3289,409.79999 L 1002.6453,409.79999 z" id="text2828"/>
  <path style="font-size: 60px; fill: rgb(0, 0, 0); stroke-linecap: round; font-family: Helvetica;" d="M 892.1004,597.18201 C 892.1004,590.05313 894.01446,584.47208 897.84259,580.43884 C 901.6707,576.40568 906.6121,574.38908 912.66681,574.38904 C 916.63163,574.38908 920.20584,575.33635 923.38947,577.23083 C 926.57302,579.12541 928.99978,581.767 930.66974,585.15564 C 932.33962,588.54434 933.17458,592.38711 933.17462,596.68396 C 933.17458,601.03945 932.29567,604.93593 930.5379,608.37341 C 928.78005,611.81092 926.28982,614.41346 923.0672,616.18103 C 919.84451,617.94861 916.36795,618.8324 912.63751,618.8324 C 908.59452,618.8324 904.98125,617.85584 901.79767,615.90271 C 898.61407,613.94959 896.20196,611.28358 894.56134,607.90466 C 892.92071,604.52577 892.1004,600.95156 892.1004,597.18201 L 892.1004,597.18201 z M 897.95978,597.2699 C 897.95977,602.44569 899.35137,606.52284 902.13458,609.50134 C 904.91777,612.47986 908.40898,613.96912 912.60822,613.96912 C 916.88553,613.96912 920.40604,612.46522 923.16974,609.4574 C 925.93337,606.4496 927.31521,602.18202 927.31525,596.65466 C 927.31521,593.15859 926.72439,590.10684 925.54279,587.49939 C 924.36111,584.892 922.6326,582.87052 920.35724,581.43494 C 918.08182,579.99943 915.52811,579.28166 912.69611,579.28162 C 908.67265,579.28166 905.21074,580.66349 902.31036,583.42712 C 899.40996,586.19083 897.95977,590.80508 897.95978,597.2699 L 897.95978,597.2699 z" id="text2830"/>
  <path style="font-size: 60px; fill: rgb(0, 0, 0); stroke-linecap: round; font-family: Helvetica;" d="M 984.1004,755.88202 C 984.1004,748.75314 986.01446,743.17209 989.84259,739.13885 C 993.6707,735.10569 998.6121,733.08909 1004.6668,733.08905 C 1008.6316,733.08909 1012.2058,734.03636 1015.3895,735.93085 C 1018.573,737.82542 1020.9998,740.46702 1022.6697,743.85565 C 1024.3396,747.24435 1025.1746,751.08712 1025.1746,755.38397 C 1025.1746,759.73946 1024.2957,763.63594 1022.5379,767.07343 C 1020.7801,770.51093 1018.2898,773.11347 1015.0672,774.88104 C 1011.8445,776.64862 1008.368,777.53241 1004.6375,777.53241 C 1000.5945,777.53241 996.98125,776.55585 993.79767,774.60272 C 990.61407,772.6496 988.20196,769.98359 986.56134,766.60468 C 984.92071,763.22578 984.1004,759.65157 984.1004,755.88202 L 984.1004,755.88202 z M 989.95978,755.96991 C 989.95977,761.14571 991.35137,765.22285 994.13458,768.20135 C 996.91777,771.17988 1000.409,772.66913 1004.6082,772.66913 C 1008.8855,772.66913 1012.406,771.16523 1015.1697,768.15741 C 1017.9334,765.14961 1019.3152,760.88203 1019.3152,755.35468 C 1019.3152,751.85861 1018.7244,748.80685 1017.5428,746.1994 C 1016.3611,743.59201 1014.6326,741.57053 1012.3572,740.13495 C 1010.0818,738.69944 1007.5281,737.98167 1004.6961,737.98163 C 1000.6726,737.98167 997.21074,739.3635 994.31036,742.12714 C 991.40996,744.89084 989.95977,749.50509 989.95978,755.96991 L 989.95978,755.96991 z" id="text2832"/>
  <path style="font-size: 60px; fill: rgb(0, 0, 0); stroke-linecap: round; font-family: Helvetica;" d="M 306.0047,512.5 L 306.0047,469.55078 L 311.68829,469.55078 L 311.68829,487.1875 L 334.01251,487.1875 L 334.01251,469.55078 L 339.69611,469.55078 L 339.69611,512.5 L 334.01251,512.5 L 334.01251,492.25586 L 311.68829,492.25586 L 311.68829,512.5 L 306.0047,512.5 z M 347.45978,491.58203 C 347.45977,484.45315 349.37384,478.8721 353.20197,474.83887 C 357.03008,470.80571 361.97148,468.78911 368.02618,468.78906 C 371.991,468.78911 375.56522,469.73637 378.74884,471.63086 C 381.9324,473.52543 384.35915,476.16703 386.02911,479.55566 C 387.69899,482.94437 388.53395,486.78714 388.534,491.08398 C 388.53395,495.43947 387.65505,499.33595 385.89728,502.77344 C 384.13943,506.21094 381.64919,508.81348 378.42657,510.58105 C 375.20389,512.34863 371.72733,513.23242 367.99689,513.23242 C 363.9539,513.23242 360.34062,512.25586 357.15704,510.30273 C 353.97344,508.34961 351.56133,505.6836 349.92072,502.30469 C 348.28009,498.92579 347.45977,495.35158 347.45978,491.58203 L 347.45978,491.58203 z M 353.31915,491.66992 C 353.31914,496.84572 354.71074,500.92286 357.49396,503.90137 C 360.27714,506.87989 363.76835,508.36914 367.96759,508.36914 C 372.24491,508.36914 375.76541,506.86524 378.52911,503.85742 C 381.29275,500.84962 382.67458,496.58205 382.67462,491.05469 C 382.67458,487.55862 382.08376,484.50686 380.90216,481.89941 C 379.72048,479.29203 377.99197,477.27054 375.71661,475.83496 C 373.44119,474.39945 370.88749,473.68168 368.05548,473.68164 C 364.03202,473.68168 360.57011,475.06351 357.66974,477.82715 C 354.76934,480.59085 353.31914,485.20511 353.31915,491.66992 L 353.31915,491.66992 z" id="text2834"/>
  <path style="font-size: 60px; fill: rgb(0, 0, 0); stroke-linecap: round; font-family: Helvetica;" d="M 630.0047,459.39999 L 630.0047,416.45078 L 635.68829,416.45078 L 635.68829,434.08749 L 658.01251,434.08749 L 658.01251,416.45078 L 663.69611,416.45078 L 663.69611,459.39999 L 658.01251,459.39999 L 658.01251,439.15585 L 635.68829,439.15585 L 635.68829,459.39999 L 630.0047,459.39999 z" id="text2836"/>
  <path style="font-size: 60px; fill: rgb(0, 0, 0); stroke-linecap: round; font-family: Helvetica;" d="M 446.0047,777 L 446.0047,734.05078 L 451.68829,734.05078 L 451.68829,751.6875 L 474.01251,751.6875 L 474.01251,734.05078 L 479.69611,734.05078 L 479.69611,777 L 474.01251,777 L 474.01251,756.75586 L 451.68829,756.75586 L 451.68829,777 L 446.0047,777 z" id="text2838"/>
  <path style="font-size: 60px; fill: rgb(0, 0, 0); stroke-linecap: round; font-family: Helvetica;" d="M 354.0047,935.59998 L 354.0047,892.65076 L 359.68829,892.65076 L 359.68829,910.28748 L 382.01251,910.28748 L 382.01251,892.65076 L 387.69611,892.65076 L 387.69611,935.59998 L 382.01251,935.59998 L 382.01251,915.35583 L 359.68829,915.35583 L 359.68829,935.59998 L 354.0047,935.59998 z" id="text2840"/>
  <path style="font-size: 60px; fill: rgb(0, 0, 0); stroke-linecap: round; font-family: Helvetica;" d="M 30.004688,882.70001 L 30.004688,839.75079 L 35.688282,839.75079 L 35.688282,857.38751 L 58.012501,857.38751 L 58.012501,839.75079 L 63.696095,839.75079 L 63.696095,882.70001 L 58.012501,882.70001 L 58.012501,862.45587 L 35.688282,862.45587 L 35.688282,882.70001 L 30.004688,882.70001 z M 71.459766,861.78204 C 71.459763,854.65317 73.373824,849.07212 77.201954,845.03888 C 81.030066,841.00572 85.971468,838.98912 92.026173,838.98907 C 95.990989,838.98912 99.565204,839.93638 102.74883,841.83087 C 105.93239,843.72544 108.35914,846.36704 110.0291,849.75568 C 111.69898,853.14438 112.53394,856.98715 112.53399,861.284 C 112.53394,865.63948 111.65504,869.53596 109.89727,872.97345 C 108.13941,876.41096 105.64918,879.01349 102.42656,880.78107 C 99.203876,882.54865 95.727317,883.43243 91.996876,883.43243 C 87.953888,883.43243 84.34061,882.45587 81.157032,880.50275 C 77.973429,878.54963 75.561322,875.88361 73.920704,872.5047 C 72.280075,869.12581 71.459763,865.55159 71.459766,861.78204 L 71.459766,861.78204 z M 77.319141,861.86993 C 77.319133,867.04573 78.710733,871.12288 81.493946,874.10138 C 84.277133,877.0799 87.768341,878.56916 91.967579,878.56915 C 96.244895,878.56916 99.765399,877.06525 102.5291,874.05743 C 105.29274,871.04963 106.67457,866.78206 106.67461,861.2547 C 106.67457,857.75863 106.08375,854.70688 104.90215,852.09943 C 103.72047,849.49204 101.99196,847.47056 99.716602,846.03497 C 97.441183,844.59946 94.887474,843.88169 92.05547,843.88165 C 88.032013,843.88169 84.570102,845.26353 81.669727,848.02716 C 78.769326,850.79086 77.319133,855.40512 77.319141,861.86993 L 77.319141,861.86993 z" id="text2842"/>
</svg>