<?xml version="1.0" encoding="UTF-8" standalone="no"?><!-- Created with Inkscape (http://www.inkscape.org/) --><svg xmlns="http://www.w3.org/2000/svg" xmlns:xlink="http://www.w3.org/1999/xlink" width="916.5" height="628"><text x="280.44498" y="106.60366" id="O" style="font-size:45px;font-family:Arial">O</text><use transform="translate(-56.962844,211.02892)" xlink:href="#O" /><use transform="translate(157.2815,391.94851)" xlink:href="#O" /><use transform="translate(32.01282,298.01043)" xlink:href="#O" /><use transform="translate(410.00668,245.95875)" xlink:href="#O" /><use transform="translate(-215.84703,64.696244)" xlink:href="#O" /><use transform="translate(472.49625,355.89397)" xlink:href="#O" /><use transform="translate(282.77276,391.94852)" xlink:href="#O" /><use transform="translate(409.06649,391.94852)" xlink:href="#O" /><use transform="translate(346.06962,501.96996)" xlink:href="#O" /><text x="438.74335" y="352.55142" id="N" style="font-size:45px;font-family:Arial">N</text><use transform="translate(-227.32141,-226.7857)" xlink:href="#N" /><text x="502.966" y="243.93582" style="font-size:45px;font-family:Arial">S</text><text x="438.56805" y="206.8084" style="font-size:45px;font-family:Arial">H</text><text x="315.16156" y="188.29045" style="font-size:45px;font-family:Arial">H<tspan x="315.16156" y="228.79045">N</tspan></text><text x="881.13977" y="362.15195" style="font-size:33px;font-family:Arial">2</text><text x="816.22034" y="352.55142" style="font-size:45px;font-family:Arial">NH</text><path d="M 352.27995,225.79816 L 343.1237,234.92316 L 380.9362,265.70441 L 383.0612,263.61066 L 352.27995,225.79816 z" fill="#000" /><path d="M 690.88461,346.72674 L 644.08486,373.72543 L 581.08519,337.42721 M 454.78585,264.53076 L 381.88623,264.53076 L 381.88623,337.42721 L 438.28594,337.42721 M 517.78552,373.72543 L 581.08519,337.42721 M 518.08552,363.22594 L 571.78524,332.32745 M 533.38544,236.9321 L 581.08519,264.53076 L 581.08519,337.42721 M 471.28576,347.02673 L 517.78552,373.72543 M 454.78585,264.53076 L 502.1856,237.23208 M 454.78585,264.53076 L 454.78585,319.72807 M 381.74307,330.97069 L 341.38644,371.32554 M 388.34303,337.27038 L 347.98641,377.62524 M 475.0714,476.6243 L 522.06353,449.43508 M 470.56797,468.73045 L 517.56355,441.63546 M 517.78552,373.72543 L 517.78552,446.62187 L 563.2633,472.77788 M 459.58582,213.83324 L 450.28587,213.83324 M 458.68583,222.83279 L 451.18587,222.83279 M 457.78583,231.83236 L 452.08586,231.83236 M 456.88584,240.83191 L 452.68586,240.83191 M 456.28584,249.83148 L 453.58586,249.83148 M 455.38585,258.83103 L 454.18585,258.83103 M 250.61935,283.41893 L 264.77635,230.48639 M 241.91993,281.16734 L 256.07639,228.08651 M 137.84303,199.17533 L 111.74401,266.97467 L 39.146732,263.37471 L 20.247442,192.87539 L 63.745812,164.67566 M 775.01916,426.38049 L 775.01916,371.19 M 766.0195,426.38049 L 766.0195,371.19 M 814.99192,347.95013 L 770.51933,373.77364 L 725.22102,347.67389 M 313.93643,217.17516 L 259.93846,231.87501 L 208.34039,180.27551 M 208.34039,180.27551 L 222.43986,127.77602 M 218.54001,177.27554 L 231.73951,127.77602 M 243.73906,105.27624 L 279.45637,95.907502 M 303.1147,71.012676 L 316.63633,20.377061 M 106.04422,256.77477 L 126.74345,202.77529 M 98.844492,167.37564 L 137.84303,199.17533 M 30.747042,197.67534 L 45.746482,253.7748 M 208.34039,180.27551 L 137.84303,199.17533 M 580.79585,503.33107 L 580.79585,556.09453 M 702.58981,503.33107 L 702.58981,558.37817 M 711.58936,503.33107 L 711.58936,558.37817 M 517.79898,592.39112 L 580.79585,556.09453 M 626.39359,582.19208 L 580.79585,556.09453 M 661.49185,582.49205 L 707.08958,556.09453 L 770.38644,592.39112" style="fill:none;stroke:#000;stroke-width:3" /></svg>
