<?xml version="1.0" encoding="UTF-8" standalone="no"?>
<!-- Created with Inkscape (http://www.inkscape.org/) -->
<svg
   xmlns:svg="http://www.w3.org/2000/svg"
   xmlns="http://www.w3.org/2000/svg"
   version="1.0"
   width="620"
   height="366.78"
   id="svg2">
  <defs
     id="defs4" />
  <g
     transform="translate(365.92856,-1329.3876)"
     id="layer1">
    <path
       d="M -63.110007,1685.38 C -67.862729,1683.8262 -71.938837,1680.1815 -74.299154,1675.3749 C -76.145338,1671.6154 -76.391361,1670.2805 -76.391361,1664.0233 C -76.391361,1657.7597 -76.146286,1656.4332 -74.291241,1652.6555 C -69.799567,1643.5086 -60.48035,1639.6662 -50.215258,1642.7287 C -42.305565,1645.0885 -37.433332,1652.0033 -36.682187,1661.9351 C -35.64083,1675.7042 -43.078237,1685.3814 -55.270522,1686.1213 C -58.028155,1686.2887 -61.267413,1685.9823 -63.110007,1685.38 z M -48.598384,1678.4839 C -44.987883,1675.6058 -43.130614,1671.8093 -42.629462,1666.2825 C -41.861142,1657.8093 -45.014672,1650.968 -50.926164,1648.2835 C -58.642749,1644.7792 -67.276798,1648.7213 -69.691059,1656.851 C -73.667922,1670.2426 -67.015795,1681.7136 -55.689448,1680.9957 C -52.299232,1680.7808 -50.824396,1680.2583 -48.598384,1678.4839 z M 151.11477,1685.38 C 146.36204,1683.8262 142.28595,1680.1815 139.92559,1675.3749 C 138.07945,1671.6154 137.83343,1670.2805 137.83343,1664.0233 C 137.83343,1657.7597 138.07848,1656.4332 139.9335,1652.6555 C 144.42521,1643.5086 153.74443,1639.6662 164.00953,1642.7287 C 171.9192,1645.0885 176.79144,1652.0033 177.54257,1661.9351 C 178.58391,1675.7042 171.1465,1685.3814 158.95428,1686.1213 C 156.1966,1686.2887 152.95733,1685.9823 151.11477,1685.38 z M 165.62637,1678.4839 C 169.23691,1675.6058 171.09418,1671.8093 171.59533,1666.2825 C 172.36363,1657.8093 169.21012,1650.968 163.29863,1648.2835 C 155.58199,1644.7792 146.94798,1648.7213 144.53374,1656.851 C 140.55685,1670.2426 147.20901,1681.7136 158.53531,1680.9957 C 161.92551,1680.7808 163.40037,1680.2583 165.62637,1678.4839 z M -118.56453,1664.0233 L -118.56453,1642.3769 L -115.57882,1642.3769 L -112.59311,1642.3769 L -112.59311,1651.334 L -112.59311,1660.2912 L -101.39669,1660.2912 L -90.200271,1660.2912 L -90.200271,1651.334 L -90.200271,1642.3769 L -87.214563,1642.3769 L -84.228852,1642.3769 L -84.228852,1664.0233 L -84.228852,1685.6697 L -87.214563,1685.6697 L -90.200271,1685.6697 L -90.200271,1675.593 L -90.200271,1665.5162 L -101.39669,1665.5162 L -112.59311,1665.5162 L -112.59311,1675.593 L -112.59311,1685.6697 L -115.57882,1685.6697 L -118.56453,1685.6697 L -118.56453,1664.0233 z M 185.23159,1664.0233 L 185.23159,1642.3769 L 188.2173,1642.3769 L 191.20302,1642.3769 L 191.20302,1651.334 L 191.20302,1660.2912 L 202.39943,1660.2912 L 213.59585,1660.2912 L 213.59585,1651.334 L 213.59585,1642.3769 L 216.58156,1642.3769 L 219.56727,1642.3769 L 219.56727,1664.0233 L 219.56727,1685.6697 L 216.58156,1685.6697 L 213.59585,1685.6697 L 213.59585,1675.593 L 213.59585,1665.5162 L 202.39943,1665.5162 L 191.20302,1665.5162 L 191.20302,1675.593 L 191.20302,1685.6697 L 188.2173,1685.6697 L 185.23159,1685.6697 L 185.23159,1664.0233 z M -41.130881,1642.0418 C -41.844787,1641.5198 -42.428897,1640.8768 -42.428897,1640.613 C -42.428897,1640.3491 -33.048614,1627.2135 -21.583826,1611.4229 L -0.73876074,1582.7125 L -15.551996,1537.0915 C -23.699277,1511.9999 -30.542064,1491.2937 -30.758193,1491.0776 C -30.974313,1490.8614 -51.692513,1483.9907 -76.798634,1475.8092 L -122.44613,1460.9338 L -164.50557,1485.2318 C -187.63827,1498.5956 -207.0195,1509.7041 -207.57496,1509.9173 C -208.29542,1510.1937 -267.89656,1476.6303 -269.95448,1474.7892 C -270.29177,1474.4875 -268.32967,1471.445 -267.79778,1471.445 C -267.55598,1471.445 -254.05519,1479.1289 -237.796,1488.5203 L -208.23387,1505.5957 L -165.59761,1480.9841 L -122.96137,1456.3725 L -76.125528,1471.589 L -29.289685,1486.8055 L -1.7400117,1466.8092 C 13.412308,1455.8112 25.994191,1446.8128 26.219725,1446.8128 C 26.735267,1446.8128 28.669822,1449.8643 28.346857,1450.1681 C 28.215777,1450.2913 16.016401,1459.1695 1.2371306,1469.8973 C -13.542142,1480.625 -25.742146,1489.7162 -25.873995,1490.0999 C -26.005836,1490.4836 -20.740535,1507.3525 -14.173314,1527.5864 C -7.6060907,1547.8203 -1.0146627,1568.1565 0.47429626,1572.778 L 3.1815078,1581.1808 L 51.039956,1580.9887 L 98.898412,1580.7966 L 113.58871,1535.6377 C 121.66842,1510.8004 128.15928,1490.2554 128.0129,1489.9823 C 127.86645,1489.7091 118.59582,1482.8382 107.4115,1474.7136 C 71.011803,1448.2717 73.13339,1449.9508 74.023609,1448.2874 C 74.457657,1447.4764 75.138078,1446.8128 75.535656,1446.8128 C 75.933233,1446.8128 86.880216,1454.5384 99.862274,1463.9807 C 112.84437,1473.423 123.84366,1481.1319 124.3051,1481.1116 C 124.76654,1481.0914 140.9311,1475.9277 160.22626,1469.6368 L 195.30837,1458.1988 L 195.95918,1460.0565 C 196.3833,1461.267 196.3262,1462.079 195.79534,1462.3876 C 195.34733,1462.6479 179.89964,1467.7306 161.46712,1473.6822 L 127.95349,1484.5035 L 130.54501,1486.2645 C 133.18012,1488.0551 133.40129,1489.2287 131.85596,1493.2218 C 131.31958,1494.6077 132.58604,1494.2303 175.90125,1480.0942 L 199.78693,1472.299 L 200.42446,1474.1579 C 200.77513,1475.1803 200.94308,1476.1304 200.79767,1476.2693 C 200.65227,1476.4083 184.59482,1481.6971 165.11447,1488.0224 L 129.69558,1499.5228 L 116.41006,1540.4933 C 109.10298,1563.0271 103.12454,1581.8869 103.12454,1582.4041 C 103.12454,1583.0816 138.53231,1632.5341 144.19426,1639.7644 C 144.52097,1640.1816 144.01975,1641.0783 143.0579,1641.7974 L 141.33701,1643.0839 L 120.22079,1613.993 L 99.104575,1584.902 L 50.917303,1584.929 L 2.7299861,1584.9559 L -18.094859,1613.6913 C -29.548517,1629.4957 -39.125155,1642.5536 -39.376276,1642.7088 C -39.627397,1642.864 -40.416968,1642.5638 -41.130881,1642.0418 z M 12.060333,1568.1074 L 12.060333,1566.2413 L 50.874577,1566.2413 L 89.688822,1566.2413 L 89.688822,1568.1074 L 89.688822,1569.9734 L 50.874577,1569.9734 L 12.060333,1569.9734 L 12.060333,1568.1074 z M -300.47404,1481.6052 C -305.22676,1480.0514 -309.30287,1476.4067 -311.66318,1471.6001 C -313.50937,1467.8406 -313.75539,1466.5058 -313.75539,1460.2485 C -313.75539,1453.985 -313.51032,1452.6584 -311.65527,1448.8807 C -307.1636,1439.7339 -297.84438,1435.8914 -287.57929,1438.9539 C -279.66959,1441.3137 -274.79736,1448.2285 -274.04622,1458.1603 C -273.00486,1471.9295 -280.44227,1481.6066 -292.63456,1482.3465 C -295.39218,1482.5139 -298.63144,1482.2075 -300.47404,1481.6052 z M -285.96241,1474.7092 C -282.35191,1471.831 -280.49464,1468.0345 -279.99349,1462.5077 C -279.22517,1454.0345 -282.3787,1447.1932 -288.29019,1444.5087 C -296.00678,1441.0044 -304.64083,1444.9465 -307.05509,1453.0762 C -311.03195,1466.4678 -304.37982,1477.9388 -293.05348,1477.2209 C -289.66326,1477.006 -288.18843,1476.4836 -285.96241,1474.7092 z M 217.54684,1481.6052 C 212.79411,1480.0514 208.71802,1476.4067 206.35766,1471.6001 C 204.51152,1467.8406 204.2655,1466.5058 204.2655,1460.2485 C 204.2655,1453.985 204.51055,1452.6584 206.36558,1448.8807 C 210.85728,1439.7339 220.17651,1435.8914 230.4416,1438.9539 C 238.35128,1441.3137 243.22351,1448.2285 243.97464,1458.1603 C 245.01598,1471.9295 237.57857,1481.6066 225.38635,1482.3465 C 222.62867,1482.5139 219.3894,1482.2075 217.54684,1481.6052 z M 232.05844,1474.7092 C 235.66899,1471.831 237.52625,1468.0345 238.0274,1462.5077 C 238.7957,1454.0345 235.64219,1447.1932 229.73071,1444.5087 C 222.01406,1441.0044 213.38006,1444.9465 210.96581,1453.0762 C 206.98892,1466.4678 213.64108,1477.9388 224.96738,1477.2209 C 228.35758,1477.006 229.83244,1476.4836 232.05844,1474.7092 z M -355.92856,1460.2485 L -355.92856,1438.6021 L -352.94285,1438.6021 L -349.95714,1438.6021 L -349.95714,1447.5593 L -349.95714,1456.5164 L -338.76072,1456.5164 L -327.5643,1456.5164 L -327.5643,1447.5593 L -327.5643,1438.6021 L -324.57859,1438.6021 L -321.59288,1438.6021 L -321.59288,1460.2485 L -321.59288,1481.8949 L -324.57859,1481.8949 L -327.5643,1481.8949 L -327.5643,1471.8182 L -327.5643,1461.7414 L -338.76072,1461.7414 L -349.95714,1461.7414 L -349.95714,1471.8182 L -349.95714,1481.8949 L -352.94285,1481.8949 L -355.92856,1481.8949 L -355.92856,1460.2485 z M -31.391701,1476.6699 C -31.708022,1474.5147 -31.613151,1474.4307 -28.863923,1474.4307 C -25.8592,1474.4307 -25.759246,1474.5479 -26.477952,1477.2298 C -26.807335,1478.4589 -27.482427,1478.9092 -28.995533,1478.9092 C -30.72211,1478.9092 -31.117239,1478.54 -31.391701,1476.6699 z M -33.654452,1463.6075 C -34.007355,1461.7614 -33.955441,1461.7414 -28.809829,1461.7414 C -24.373548,1461.7414 -23.675123,1461.9151 -24.061556,1462.9221 C -24.310751,1463.5715 -24.51463,1464.4112 -24.51463,1464.7882 C -24.51463,1465.1651 -26.490828,1465.4735 -28.906178,1465.4735 C -32.99776,1465.4735 -33.322097,1465.346 -33.654452,1463.6075 z M 43.629167,1453.9874 C 38.876445,1452.4336 34.800337,1448.7889 32.440021,1443.9823 C 30.593836,1440.2228 30.347814,1438.8879 30.347814,1432.6307 C 30.347814,1426.3671 30.592888,1425.0406 32.447933,1421.2629 C 36.939607,1412.116 46.258825,1408.2736 56.523916,1411.3361 C 64.43361,1413.6959 69.305842,1420.6107 70.056988,1430.5425 C 71.098344,1444.3116 63.660938,1453.9888 51.468652,1454.7287 C 48.711019,1454.8961 45.471762,1454.5897 43.629167,1453.9874 z M 58.140791,1447.0913 C 61.751292,1444.2132 63.608561,1440.4167 64.109712,1434.8899 C 64.878033,1426.4167 61.724502,1419.5754 55.813011,1416.8909 C 48.096426,1413.3866 39.462376,1417.3287 37.048115,1425.4584 C 33.071252,1438.8499 39.723379,1450.321 51.049727,1449.6031 C 54.439942,1449.3882 55.914779,1448.8657 58.140791,1447.0913 z M -35.711047,1450.9182 C -35.711047,1449.0572 -35.691491,1449.0521 -28.540123,1449.0521 C -22.307846,1449.0521 -21.428502,1449.2067 -21.822273,1450.2328 C -22.071468,1450.8822 -22.275347,1451.7219 -22.275347,1452.0989 C -22.275347,1452.4758 -25.298379,1452.7843 -28.993197,1452.7843 C -35.661283,1452.7843 -35.711047,1452.7705 -35.711047,1450.9182 z M -127.03333,1446.653 C -127.51819,1444.7988 -126.49369,1443.8557 -123.97613,1443.8385 C -122.60514,1443.8292 -122.29667,1444.2384 -122.29667,1446.0664 C -122.29667,1448.0368 -122.55515,1448.3057 -124.4489,1448.3057 C -126.04278,1448.3057 -126.71324,1447.8769 -127.03333,1446.653 z M -37.95033,1438.2289 L -37.95033,1436.3628 L -28.540123,1436.3628 C -20.265911,1436.3628 -19.184613,1436.5054 -19.582989,1437.5435 C -19.832184,1438.1929 -20.036064,1439.0327 -20.036064,1439.4096 C -20.036064,1439.7878 -24.051285,1440.095 -28.993197,1440.095 L -37.95033,1440.095 L -37.95033,1438.2289 z M -129.96726,1435.8761 C -130.19181,1434.707 -130.32124,1433.7119 -130.25486,1433.6649 C -130.18847,1433.6179 -128.37072,1433.3544 -126.21541,1433.0793 L -122.29667,1432.5793 L -122.29667,1434.8443 C -122.29667,1436.5613 -122.63525,1437.1093 -123.69622,1437.1093 C -124.46597,1437.1093 -126.09999,1437.3101 -127.32737,1437.5556 C -129.32913,1437.9559 -129.60102,1437.783 -129.96726,1435.8761 z M -46.161036,1408.745 L -46.161036,1387.0986 L -43.175325,1387.0986 L -40.189614,1387.0986 L -40.189614,1396.0557 L -40.189614,1405.0129 L -28.993197,1405.0129 L -17.79678,1405.0129 L -17.79678,1396.0557 L -17.79678,1387.0986 L -14.811069,1387.0986 L -11.825358,1387.0986 L -11.825358,1408.745 L -11.825358,1430.3914 L -14.811069,1430.3914 L -17.79678,1430.3914 L -17.79678,1420.3147 L -17.79678,1410.2379 L -28.993197,1410.2379 L -40.189614,1410.2379 L -40.189614,1420.3147 L -40.189614,1430.3914 L -43.175325,1430.3914 L -46.161036,1430.3914 L -46.161036,1408.745 z M -132.74666,1426.4064 C -132.74666,1425.7916 -132.93725,1424.7919 -133.17019,1424.1848 C -133.4985,1423.3292 -132.7013,1422.9678 -129.62466,1422.5769 C -127.44168,1422.2996 -125.06778,1421.9065 -124.34934,1421.7032 C -123.31655,1421.4111 -123.0431,1421.7956 -123.0431,1423.5402 C -123.0431,1425.5067 -123.3476,1425.7991 -125.8422,1426.2285 C -127.38171,1426.4935 -129.56501,1426.8935 -130.69398,1427.1174 C -132.20071,1427.4161 -132.74666,1427.227 -132.74666,1426.4064 z M -135.96651,1414.6481 C -136.2157,1413.6952 -136.34043,1412.8364 -136.24369,1412.7397 C -135.93699,1412.433 -126.47407,1410.9958 -124.72256,1410.9899 C -123.4472,1410.9856 -123.0431,1411.4141 -123.0431,1412.7705 C -123.0431,1414.9378 -123.69727,1415.2163 -130.32158,1415.869 C -135.32159,1416.3617 -135.5302,1416.3166 -135.96651,1414.6481 z M -138.97463,1404.1125 C -139.2115,1403.2067 -139.25227,1402.3125 -139.06523,1402.1255 C -138.69127,1401.7515 -126.46831,1399.8298 -124.29977,1399.804 C -123.25852,1399.7916 -122.99874,1400.2636 -123.18013,1401.838 C -123.4058,1403.7969 -123.68199,1403.9272 -129.38773,1404.7676 C -137.98333,1406.0337 -138.48111,1405.9997 -138.97463,1404.1125 z M -141.70379,1393.8165 C -141.70379,1392.9954 -141.78776,1392.082 -141.8904,1391.7866 C -142.04141,1391.3521 -128.23781,1388.8219 -124.72256,1388.6398 C -124.18437,1388.6119 -123.78952,1389.4861 -123.78952,1390.7057 L -123.78952,1392.8198 L -132.18684,1394.0732 C -142.42262,1395.6011 -141.70379,1395.6205 -141.70379,1393.8165 z M -139.99207,1383.0767 C -144.74479,1381.5229 -148.8209,1377.8782 -151.18121,1373.0717 C -153.0274,1369.3121 -153.27342,1367.9773 -153.27342,1361.7201 C -153.27342,1355.4565 -153.02835,1354.1299 -151.1733,1350.3523 C -146.68163,1341.2054 -137.36241,1337.3629 -127.09732,1340.4255 C -119.18762,1342.7852 -114.31539,1349.7 -113.56425,1359.6319 C -112.52289,1373.401 -119.9603,1383.0781 -132.15258,1383.8181 C -134.91022,1383.9854 -138.14947,1383.6791 -139.99207,1383.0767 z M -125.48044,1376.1807 C -121.86994,1373.3025 -120.01267,1369.5061 -119.51152,1363.9793 C -118.7432,1355.5061 -121.89673,1348.6647 -127.80822,1345.9802 C -135.52481,1342.476 -144.15886,1346.4181 -146.57312,1354.5477 C -150.54998,1367.9393 -143.89785,1379.4103 -132.57151,1378.6924 C -129.18129,1378.4775 -127.70646,1377.9551 -125.48044,1376.1807 z M -194.70016,1361.7201 L -194.70016,1340.0737 L -191.71445,1340.0737 L -188.72874,1340.0737 L -188.72874,1349.0308 L -188.72874,1357.9879 L -177.53232,1357.9879 L -166.3359,1357.9879 L -166.3359,1349.0308 L -166.3359,1340.0737 L -163.35019,1340.0737 L -160.36448,1340.0737 L -160.36448,1361.7201 L -160.36448,1383.3665 L -163.35019,1383.3665 L -166.3359,1383.3665 L -166.3359,1373.2897 L -166.3359,1363.2129 L -177.53232,1363.2129 L -188.72874,1363.2129 L -188.72874,1373.2897 L -188.72874,1383.3665 L -191.71445,1383.3665 L -194.70016,1383.3665 L -194.70016,1361.7201 z"
       id="path2534"
       style="fill:#000000" />
  </g>
</svg>
