<?xml version="1.0" encoding="iso-8859-1"?>
<!-- Generator: Adobe Illustrator 19.1.0, SVG Export Plug-In . SVG Version: 6.00 Build 0)  -->
<svg version="1.1" id="&#x421;&#x43B;&#x43E;&#x439;_1"
	 xmlns="http://www.w3.org/2000/svg" xmlns:xlink="http://www.w3.org/1999/xlink" x="0px" y="0px" viewBox="0 0 617.159 490.706"
	 style="enable-background:new 0 0 617.159 490.706;" xml:space="preserve">
<g>
	<rect x="182.985" y="241.976" transform="matrix(-0.4996 -0.8663 0.8663 -0.4996 46.8156 556.6249)" width="2.4" height="45.628"/>
	<rect x="161.371" y="195.148" transform="matrix(-0.866 -0.5 0.5 -0.866 245.5197 458.4831)" width="45.628" height="2.4"/>
	<rect x="123.712" y="207.755" width="2.4" height="45.628"/>
	<rect x="12.116" y="268.106" transform="matrix(-0.866 -0.5 0.5 -0.866 -74.9582 518.5278)" width="39.749" height="2.4"/>
	<rect x="332.634" y="155.576" transform="matrix(0.4996 0.8663 -0.8663 0.4996 321.5979 -199.92)" width="2.4" height="45.628"/>
	<rect x="311.02" y="108.748" transform="matrix(0.866 0.5 -0.5 0.866 99.6987 -152.1864)" width="45.628" height="2.4"/>
	<rect x="273.362" y="121.355" width="2.4" height="45.628"/>
	<rect x="432.4" y="155.576" transform="matrix(-0.4996 -0.8663 0.8663 -0.4996 495.6761 643.1253)" width="2.4" height="45.628"/>
	<rect x="410.786" y="108.748" transform="matrix(-0.866 -0.5 0.5 -0.866 754.1343 421.9667)" width="45.628" height="2.4"/>
	<path d="M519.993,47.812h-2.4v39.672l-1.653-0.954l0,0l-1.732-1l-0.599-0.346l-0.599,0.346l-1.732,1l0,0l-1.653,0.954V47.812h-2.4
		v41.058l-43.499,25.114L416.174,86.53l0,0l-1.732-1l-0.599-0.346l-0.6,0.346l-49.283,28.454L316.408,86.53l0,0l-1.732-1
		l-0.599-0.346l-0.6,0.346l-49.883,28.8l-0.601,0.345v0.694v2v54.907l-48.683,28.107l-47.552-27.454l0,0l-1.732-1l-0.599-0.346
		l-0.6,0.346l-1.732,1v0l-48.151,27.8l-0.601,0.345v0.695v2v54.907l-31.157,17.989l1.199,2.079l31.158-17.989l48.683,28.107v56.107
		l-47.3,19.723l0,0l-1.846,0.77l-0.738,0.308v0.799v2v55.279L85.705,471.72l0,0l-1,1.732l-1.782,3.079l3.284-1.372l49.42-20.607
		l49.42,20.607l0.974,0.409l0.528-0.917l1-1.732l0,0l27.8-48.151l0.16-0.277v-0.322v-2v-53.6v-2v-0.799l-0.737-0.308l-1.846-0.77
		l0,0l-47.3-19.723v-56.107l49.282-28.453l0.601-0.345v-0.695v-2v-54.907l48.683-28.107l49.283,28.454l0.6,0.346l0.599-0.346
		l1.732-1l0,0l47.552-27.454l49.283,28.454l0.6,0.346l0.599-0.346l1.732-1l0,0l46.419-26.8l0,0l1.732-1l0.601-0.345v-0.694v-2
		v-54.907l47.551-27.453l0,0l1.133-0.654l1.133,0.654l0,0l32.692,18.875l1.199-2.079l-28.639-16.535V47.812z M265.394,116.062
		l1.132-0.653l0,0l46.419-26.8l0,0l1.133-0.654l48.683,28.107v56.214l-48.683,28.107l-1.133-0.654l0,0l-47.551-27.453v-54.907
		V116.062z M214.311,201.769L214.311,201.769L214.311,201.769L214.311,201.769z M115.744,367.369l45.388-18.926l-26.493,38.529
		l-0.211,0.306v0.374v2v62.8l-45.869,19.126l26.498-45.896l12.571,5.242v-2.6l-11.883-4.955v-54.8V367.369z M135.628,453.252
		L135.628,453.252L135.628,453.252L135.628,453.252z M114.544,424.169L114.544,424.169L114.544,424.169L114.544,424.169z
		 M213.11,422.169v1.2l-47.3,19.723l0,0l-1.383,0.577l-1.383-0.577l0,0l-19.417-8.096v2.6l20.337,8.48l0.463,0.193l0.463-0.193
		l46.607-19.434l-26.026,45.078l0,0l-0.472,0.818l-0.872-0.364l0,0l-47.3-19.723v-62.8v-1.627l28.037-40.773l48.246,20.118v1.2
		V422.169z M213.11,258.676l-48.683,28.107l-48.683-28.107v-54.907v-1.307l1.132-0.653l0,0l46.419-26.8l0,0l1.133-0.654l1.133,0.654
		v0l47.55,27.453v54.907V258.676z M462.526,172.276l-1.131,0.653v0l-47.552,27.454l-1.133-0.654l0,0l-47.551-27.453v-56.214
		l47.551-27.453l0,0l1.133-0.654l48.683,28.107v54.907V172.276z"/>
	<path d="M64.661,273.374c-7.988,0-12.988,5.625-12.988,14.57s5,14.551,12.988,14.551s12.988-5.605,12.988-14.551
		S72.65,273.374,64.661,273.374z M64.661,299.253c-5.762,0-9.375-4.375-9.375-11.309c0-6.953,3.613-11.328,9.375-11.328
		s9.375,4.375,9.375,11.328C74.036,294.878,70.423,299.253,64.661,299.253z"/>
	<path d="M513.609,43.295c7.988,0,12.988-5.605,12.988-14.551s-5-14.57-12.988-14.57s-12.988,5.625-12.988,14.57
		S505.621,43.295,513.609,43.295z M513.609,17.416c5.762,0,9.375,4.375,9.375,11.328c0,6.934-3.613,11.309-9.375,11.309
		s-9.375-4.375-9.375-11.309C504.234,21.791,507.847,17.416,513.609,17.416z"/>
	<path d="M563.492,100.574c-7.988,0-12.988,5.625-12.988,14.57s5,14.551,12.988,14.551s12.988-5.605,12.988-14.551
		S571.48,100.574,563.492,100.574z M563.492,126.453c-5.762,0-9.375-4.375-9.375-11.309c0-6.953,3.613-11.328,9.375-11.328
		s9.375,4.375,9.375,11.328C572.867,122.078,569.254,126.453,563.492,126.453z"/>
	<polygon points="599.465,101.043 599.465,113.23 583.996,113.23 583.996,101.043 580.48,101.043 580.48,129.227 583.996,129.227 
		583.996,116.395 599.465,116.395 599.465,129.227 602.98,129.227 602.98,101.043 	"/>
</g>
</svg>
